# xmcd
#
# Track frame offsets: 
#        150
#        16459
#        34016
#        50730
#        69077
#        90153
#        108174
#        127115
#        148015
#        166518
#        182903
#        201190
#        218611
#        234339
#        257539
#        278793
#        295910
#        317007
#
# Disc length: 4438 seconds
#
# Revision: 5
# Processed by: cddbd v1.5.2PL0 Copyright (c) Steve Scherf et al.
# Submitted via: ExactAudioCopy v1.3
#
DISCID=f6115412
DTITLE=蘇永康 - So Great
DYEAR=2011
DGENRE=Pop
TTITLE0=失眠
TTITLE1=不要離開我
TTITLE2=獨個成長
TTITLE3=生命色彩
TTITLE4=讓我暖一些
TTITLE5=燈火欄柵處
TTITLE6=假使有日能忘記
TTITLE7=男人不該讓女人流淚（國）
TTITLE8=從來未發生
TTITLE9=不想獨自快樂
TTITLE10=越吻越傷心
TTITLE11=我女人
TTITLE12=因為愛妳（更珍惜我自己）
TTITLE13=其實我很擔心
TTITLE14=相遇太早（國）
TTITLE15=老死
TTITLE16=紅顏知己
TTITLE17=黑色禮服
EXTD=YEAR: 2011
EXTT0=
EXTT1=
EXTT2=
EXTT3=
EXTT4=
EXTT5=
EXTT6=
EXTT7=
EXTT8=
EXTT9=
EXTT10=
EXTT11=
EXTT12=
EXTT13=
EXTT14=
EXTT15=
EXTT16=
EXTT17=
PLAYORDER=
